PathFileType	4	(X/Y/Z)	Walk8.trc
DataRate	CameraRate	NumFrames	NumMarkers	Units	OrigDataRate	OrigDataStartFrame	OrigNumFrames
200.000000	200.000000	7	59	mm	200.000000	369	526
Frame#	Times		LFHD		RFHD		RBHD		C7		T10		CLAV		STRN		RBack		LASI		RASI		RPSI		RACR1		RUA1		RElbow		RFA1		RWRR		RWRU		RCAR		LACR1		LUA1		LFA1		LWRR		LCAR		RTH1		RTH3		RTH2		RTH4		RLFC		LTH1		LTH3		LTH2		LTH4		LLFC		LTB1		LTB3		LTB2		LTB4		LMMAL		LMT1		LMT5		LToe		LLMAL		RTB1		LPSI		LElbow		RTB2		RTB4		LBHD		RMT1		RToe		RTB3		RElbowM		LCAL		LElbowM		LWRU		RLMAL		RCAL		RMT5		RMMAL
			X1	Y1	Z1	X2	Y2	Z2	X3	Y3	Z3	X4	Y4	Z4	X5	Y5	Z5	X6	Y6	Z6	X7	Y7	Z7	X8	Y8	Z8	X9	Y9	Z9	X10	Y10	Z10	X11	Y11	Z11	X12	Y12	Z12	X13	Y13	Z13	X14	Y14	Z14	X15	Y15	Z15	X16	Y16	Z16	X17	Y17	Z17	X18	Y18	Z18	X19	Y19	Z19	X20	Y20	Z20	X21	Y21	Z21	X22	Y22	Z22	X23	Y23	Z23	X24	Y24	Z24	X25	Y25	Z25	X26	Y26	Z26	X27	Y27	Z27	X28	Y28	Z28	X29	Y29	Z29	X30	Y30	Z30	X31	Y31	Z31	X32	Y32	Z32	X33	Y33	Z33	X34	Y34	Z34	X35	Y35	Z35	X36	Y36	Z36	X37	Y37	Z37	X38	Y38	Z38	X39	Y39	Z39	X40	Y40	Z40	X41	Y41	Z41	X42	Y42	Z42	X43	Y43	Z43	X44	Y44	Z44	X45	Y45	Z45	X46	Y46	Z46	X47	Y47	Z47	X48	Y48	Z48	X49	Y49	Z49	X50	Y50	Z50	X51	Y51	Z51	X52	Y52	Z52	X53	Y53	Z53	X54	Y54	Z54	X55	Y55	Z55	X56	Y56	Z56	X57	Y57	Z57	X58	Y58	Z58	X59	Y59	Z59

369	1.845	307.7	1596.2	-15.882	317.31	1598.2	56.784	150.05	1551.4	100.36	148.64	1423.9	24.047	120.96	1140.6	21.298	275.83	1351.4	11.409	359.8	1128.3	4.9872	114.28	1314.8	119.41	294.39	949.36	-124.59	316.82	956.37	150.53	99.807	986.03	89.786	233.35	1354.6	187.09	231.49	1141.1	243.78	217.18	1033.4	265.89	293.38	900	258	322.81	801.01	213.97	279.39	788.28	273.26	329.91	754.44	262.63	206.7	1368.2	-154.34	190.67	1161.4	-207.97	250.85	927.65	-236.67	287.77	816.5	-197.58	293.58	773.2	-240.1	238.64	751.64	192.4	260.71	568.84	148.1	313.97	677.99	142.16	249.08	660.27	168.96	267.82	464.25	132.72	232.39	741.08	-154.31	293.83	565.72	-135.07	332.79	674.07	-123.65	263.46	649.51	-146.96	302.91	471.29	-124.61	280.95	369.83	-53.05	142.8	242.2	-55.686	190.85	327.75	-124.09	211.08	304.13	-58.488	61.476	184.85	-20.969	129.8	68.719	-59.056	84.461	76.156	-121.56	153.73	42.767	-86.206	36.541	185.71	-100.24	278.73	342.15	51.958	89.352	975.05	-24.815	178.49	1041.9	-225.39	250.91	253.49	120.46	255.35	252.1	48.919	138.54	1558.9	-26.015	331.95	37.955	47.712	375.38	29.35	80.937	232.23	162.84	45.064	184.26	1013.3	189.29	-17.302	194.4	-44.155	162.56	1024.5	-156.73	239.84	806.89	-250.67	177.02	61.454	94.366	129.14	27.777	47.296	286.17	21.544	132.76	193.5	76.957	15.394
370	1.85	313.22	1596.8	-15.552	322.83	1598.7	57.11	155.52	1552.1	100.67	153.95	1424.6	24.412	126.24	1141.2	21.79	281.09	1352.1	11.724	365.07	1129.1	5.4946	119.63	1315.5	119.93	300.11	950.34	-124.15	322.33	957.27	150.79	105.14	986.6	90.067	238.72	1355.5	187.43	237.6	1142.1	244.44	223.97	1034.3	266.68	301.5	901.64	258.12	331.93	803.16	213.67	288.81	789.72	273.02	339.76	756.6	262.2	211.85	1368.9	-154.01	195.02	1162	-207.39	253.62	927.87	-236.19	289.63	816.34	-197.25	294.98	772.94	-239.77	243.54	752	192.47	263.5	568.97	148.21	317.84	677.55	141.96	252.89	660.52	168.96	269.54	464.21	132.89	238.84	742.31	-154.39	301.72	567.44	-135.03	339.71	676.12	-123.57	270.78	651	-147.07	311.51	472.77	-124.35	291.42	370.95	-52.673	155.85	240.61	-54.942	202.08	326.99	-123.5	222.87	303.87	-57.928	75.769	181.58	-20.068	147.07	67.453	-58.095	101.55	73.64	-120.54	171.69	42.076	-85.206	50.823	181.79	-99.298	279.87	341.99	52.105	94.767	975.68	-24.535	182.14	1042.6	-224.73	251.64	253.42	120.58	256.09	252.04	49.042	144.03	1559.6	-25.704	331.92	37.949	47.737	375.35	29.308	80.993	232.66	162.88	45.144	191.02	1014	190.21	-3.3483	189.1	-43.192	166.33	1025.3	-155.95	241.57	807.2	-250.34	177.08	61.674	94.406	129.13	28.054	47.323	286.17	21.543	132.78	193.58	77.152	15.445
371	1.855	318.73	1597.3	-15.24	328.34	1599.2	57.421	160.98	1552.7	100.97	159.25	1425.2	24.752	131.5	1141.8	22.264	286.33	1352.7	12.024	370.34	1129.9	6.0049	124.96	1316.2	120.44	305.88	951.26	-123.66	327.86	958.1	150.97	110.47	987.13	90.337	244.09	1356.3	187.74	243.68	1143	245.1	230.71	1035.2	267.46	309.58	903.27	258.24	341.03	805.31	213.35	298.2	791.17	272.74	349.57	758.76	261.76	217	1369.5	-153.7	199.35	1162.6	-206.82	256.38	928.05	-235.72	291.49	816.15	-196.95	296.36	772.68	-239.46	248.37	752.33	192.54	266.28	569.09	148.31	321.7	677.09	141.8	256.67	660.74	168.94	271.27	464.16	133.06	245.24	743.5	-154.49	309.53	569.12	-134.99	346.56	678.12	-123.46	278.03	652.45	-147.18	319.99	474.18	-124.08	301.83	372.02	-52.287	168.98	238.92	-54.224	213.36	326.12	-122.93	234.68	303.54	-57.378	90.237	178.18	-19.223	164.51	66.158	-57.237	118.82	71.087	-119.62	189.81	41.389	-84.311	65.286	177.73	-98.406	281.02	341.84	52.254	100.17	976.26	-24.267	185.77	1043.3	-224.08	252.39	253.37	120.69	256.85	251.98	49.162	149.5	1560.3	-25.412	331.89	37.945	47.764	375.32	29.267	81.052	233.09	162.92	45.224	197.81	1014.6	191.07	10.834	183.6	-42.271	170.1	1026.1	-155.19	243.29	807.49	-250.01	177.14	61.903	94.446	129.13	28.343	47.355	286.17	21.544	132.81	193.67	77.356	15.492
372	1.86	324.23	1597.7	-14.945	333.84	1599.6	57.715	166.43	1553.4	101.24	164.53	1425.8	25.067	136.75	1142.4	22.723	291.56	1353.2	12.311	375.59	1130.7	6.5145	130.29	1316.9	120.92	311.67	952.13	-123.14	333.38	958.85	151.08	115.78	987.62	90.593	249.44	1357.1	188.04	249.73	1144	245.75	237.42	1036	268.22	317.61	904.88	258.37	350.09	807.47	213.04	307.55	792.6	272.44	359.32	760.93	261.29	222.14	1370.1	-153.4	203.69	1163.1	-206.29	259.12	928.2	-235.28	293.35	815.94	-196.67	297.74	772.39	-239.19	253.13	752.64	192.6	269.06	569.2	148.41	325.54	676.61	141.69	260.41	660.93	168.9	273.02	464.11	133.22	251.59	744.65	-154.61	317.26	570.75	-134.95	353.34	680.05	-123.32	285.21	653.85	-147.29	328.37	475.52	-123.81	312.17	373.04	-51.895	182.21	237.15	-53.538	224.66	325.16	-122.38	246.51	303.14	-56.841	104.88	174.64	-18.439	182.1	64.842	-56.495	136.29	68.513	-118.8	208.08	40.717	-83.537	79.931	173.54	-97.57	282.19	341.68	52.403	105.56	976.81	-24.01	189.4	1043.9	-223.45	253.14	253.31	120.8	257.63	251.93	49.279	154.97	1560.9	-25.138	331.86	37.941	47.792	375.31	29.227	81.114	233.54	162.97	45.3	204.63	1015.2	191.89	25.253	177.92	-41.391	173.86	1026.8	-154.45	244.99	807.74	-249.7	177.21	62.142	94.485	129.12	28.646	47.39	286.18	21.547	132.83	193.77	77.568	15.536
373	1.865	329.72	1598.2	-14.669	339.33	1600	57.992	171.87	1553.9	101.5	169.8	1426.4	25.36	142	1142.9	23.165	296.77	1353.8	12.584	380.83	1131.5	7.0199	135.6	1317.5	121.39	317.49	952.93	-122.59	338.9	959.52	151.13	121.09	988.06	90.835	254.78	1357.9	188.31	255.74	1144.8	246.39	244.1	1036.8	268.97	325.6	906.47	258.51	359.11	809.63	212.72	316.86	794.03	272.11	369.02	763.08	260.81	227.29	1370.6	-153.13	208.02	1163.6	-205.78	261.85	928.3	-234.86	295.22	815.71	-196.43	299.11	772.08	-238.93	257.8	752.91	192.66	271.85	569.28	148.51	329.36	676.13	141.62	264.12	661.07	168.85	274.79	464.06	133.38	257.89	745.76	-154.74	324.9	572.32	-134.9	360.06	681.91	-123.14	292.32	655.18	-147.41	336.62	476.79	-123.54	322.44	374	-51.501	195.54	235.29	-52.885	235.99	324.1	-121.84	258.36	302.67	-56.32	119.71	170.98	-17.718	199.85	63.514	-55.88	153.92	65.933	-118.1	226.49	40.071	-82.899	94.757	169.24	-96.791	283.37	341.53	52.55	110.93	977.31	-23.767	193.02	1044.5	-222.84	253.91	253.26	120.9	258.42	251.87	49.391	160.42	1561.5	-24.883	331.84	37.939	47.821	375.3	29.189	81.182	233.99	163.02	45.374	211.47	1015.8	192.65	39.915	172.09	-40.552	177.62	1027.5	-153.74	246.69	807.96	-249.4	177.28	62.389	94.523	129.11	28.964	47.427	286.18	21.552	132.86	193.88	77.788	15.573
374	1.87	335.2	1598.5	-14.412	344.81	1600.3	58.251	177.29	1554.5	101.73	175.05	1426.9	25.628	147.23	1143.3	23.589	301.97	1354.3	12.843	386.07	1132.1	7.5176	140.9	1318.1	121.84	323.32	953.68	-122.01	344.4	960.1	151.13	126.38	988.46	91.062	260.1	1358.6	188.57	261.73	1145.6	247.03	250.74	1037.6	269.69	333.55	908.03	258.65	368.1	811.78	212.4	326.13	795.43	271.75	378.67	765.22	260.31	232.44	1371	-152.87	212.34	1164	-205.3	264.57	928.37	-234.48	297.1	815.45	-196.21	300.47	771.75	-238.7	262.38	753.15	192.73	274.66	569.35	148.61	333.15	675.63	141.61	267.8	661.18	168.79	276.58	464	133.53	264.16	746.81	-154.89	332.46	573.83	-134.85	366.71	683.68	-122.94	299.34	656.46	-147.52	344.75	477.99	-123.26	332.63	374.92	-51.11	208.97	233.37	-52.272	247.36	322.96	-121.33	270.23	302.14	-55.819	134.72	167.22	-17.065	217.74	62.183	-55.403	171.71	63.36	-117.52	245.02	39.464	-82.414	109.76	164.86	-96.074	284.58	341.36	52.695	116.3	977.76	-23.539	196.64	1045	-222.25	254.7	253.21	120.99	259.23	251.81	49.497	165.87	1562.1	-24.648	331.83	37.937	47.852	375.3	29.152	81.254	234.46	163.07	45.443	218.33	1016.4	193.37	54.826	166.11	-39.757	181.39	1028.2	-153.05	248.38	808.14	-249.11	177.36	62.645	94.558	129.11	29.299	47.466	286.19	21.559	132.88	194	78.015	15.603
375	1.875	340.68	1598.8	-14.174	350.29	1600.6	58.491	182.7	1555	101.95	180.29	1427.3	25.874	152.45	1143.8	23.996	307.16	1354.7	13.09	391.29	1132.8	8.0044	146.18	1318.6	122.27	329.15	954.36	-121.41	349.89	960.59	151.09	131.67	988.81	91.272	265.41	1359.3	188.81	267.7	1146.4	247.65	257.36	1038.3	270.39	341.47	909.56	258.8	377.04	813.92	212.08	335.37	796.82	271.37	388.27	767.33	259.79	237.58	1371.4	-152.62	216.67	1164.4	-204.85	267.28	928.38	-234.12	298.99	815.15	-196.01	301.84	771.38	-238.49	266.87	753.35	192.79	277.48	569.4	148.7	336.93	675.14	141.64	271.45	661.25	168.71	278.41	463.92	133.67	270.39	747.81	-155.05	339.92	575.27	-134.79	373.3	685.37	-122.72	306.28	657.66	-147.63	352.76	479.1	-122.98	342.74	375.77	-50.726	222.49	231.38	-51.703	258.75	321.74	-120.84	282.12	301.56	-55.343	149.92	163.37	-16.482	235.76	60.858	-55.07	189.65	60.807	-117.08	263.67	38.906	-82.091	124.95	160.39	-95.422	285.82	341.2	52.835	121.67	978.16	-23.327	200.26	1045.5	-221.67	255.5	253.16	121.08	260.07	251.75	49.597	171.31	1562.6	-24.432	331.82	37.935	47.883	375.3	29.117	81.332	234.93	163.12	45.509	225.2	1016.9	194.04	69.989	160.02	-39.007	185.15	1028.8	-152.39	250.08	808.28	-248.82	177.44	62.91	94.593	129.11	29.654	47.504	286.2	21.569	132.91	194.14	78.249	15.627
